<svg xmlns="http://www.w3.org/2000/svg" viewBox="0 0 500 500">
  <defs>
    <linearGradient id="gradient" x1="0%" y1="0%" x2="100%" y2="100%">
      <stop offset="0%" stop-color="#8B4513"/>
      <stop offset="100%" stop-color="#DEB887"/>
    </linearGradient>
    
    <filter id="shadow">
      <feDropShadow dx="0" dy="0" stdDeviation="10" flood-color="rgba(0, 0, 0, 0.3)"/>
    </filter>
    
    <animateTransform
      attributeName="transform"
      attributeType="XML"
      type="rotate"
      from="0 250 250"
      to="360 250 250"
      dur="20s"
      repeatCount="indefinite"
    />
  </defs>
  
  <g filter="url(#shadow)">
    <circle cx="250" cy="250" r="200" fill="url(#gradient)">
      <animate
        attributeName="r"
        values="200;220;200"
        dur="4s"
        repeatCount="indefinite"
      />
    </circle>
    
    <g id="petals">
      <path d="M250,50 C250,50 300,150 400,150 C500,150 450,50 450,50 C450,50 500,150 400,250 C300,350 250,250 250,250 C250,250 200,350 100,250 C0,150 50,50 50,50 C50,50 0,150 100,150 C200,150 250,50 250,50" fill="#FFFFFF" opacity="0.8">
        <animateTransform
          attributeName="transform"
          attributeType="XML"
          type="rotate"
          from="0 250 250"
          to="-360 250 250"
          dur="10s"
          repeatCount="indefinite"
        />
      </path>
    </g>
    
    <g id="inner-petals">
      <use xlink:href="#petals" transform="rotate(22.5 250 250) scale(0.8)" fill="#F5DEB3" opacity="0.6">
        <animateTransform
          attributeName="transform"
          attributeType="XML"
          type="rotate"
          from="22.5 250 250"
          to="-337.5 250 250"
          dur="12s"
          repeatCount="indefinite"
        />
      </use>
    </g>
    
    <circle cx="250" cy="250" r="80" fill="#FFFFFF" opacity="0.8">
      <animate
        attributeName="opacity"
        values="0.8;0.6;0.8"
        dur="6s"
        repeatCount="indefinite"
      />
    </circle>
    
    <circle cx="250" cy="250" r="40" fill="url(#gradient)"/>
  </g>
</svg>